<mxfile modified="2023-06-22T10:17:33.381Z" host="app.diagrams.net" agent="Mozilla/5.0 (Windows NT 10.0; Win64; x64) AppleWebKit/537.36 (KHTML, like Gecko) Chrome/114.0.0.0 Safari/537.36" etag="Be3JMduPYqR_PjK_NrOC" version="21.5.0" type="github">
  <diagram id="l8hXMBHkgcEJcSW0mbfh" name="Page-1">
    <mxGraphModel dx="1035" dy="1396" grid="1" gridSize="10" guides="1" tooltips="1" connect="1" arrows="1" fold="1" page="1" pageScale="1" pageWidth="1169" pageHeight="827" math="0" shadow="0">
      <root>
        <mxCell id="0" />
        <mxCell id="1" parent="0" />
        <mxCell id="VNmVYb1o_VnMMn-IZns2-4" style="edgeStyle=orthogonalEdgeStyle;rounded=0;orthogonalLoop=1;jettySize=auto;html=1;entryX=0;entryY=0.5;entryDx=0;entryDy=0;" edge="1" parent="1" source="VNmVYb1o_VnMMn-IZns2-1" target="VNmVYb1o_VnMMn-IZns2-3">
          <mxGeometry relative="1" as="geometry" />
        </mxCell>
        <mxCell id="VNmVYb1o_VnMMn-IZns2-40" style="edgeStyle=elbowEdgeStyle;rounded=0;orthogonalLoop=1;jettySize=auto;elbow=vertical;html=1;" edge="1" parent="1" source="VNmVYb1o_VnMMn-IZns2-1" target="VNmVYb1o_VnMMn-IZns2-20">
          <mxGeometry relative="1" as="geometry" />
        </mxCell>
        <mxCell id="VNmVYb1o_VnMMn-IZns2-1" value="SENSOR 1" style="image;aspect=fixed;perimeter=ellipsePerimeter;align=center;shadow=0;dashed=0;fontColor=#4277BB;labelBackgroundColor=default;fontSize=12;spacingTop=3;image=img/lib/ibm/users/sensor.svg;whiteSpace=wrap;" vertex="1" parent="1">
          <mxGeometry x="90" y="310" width="40" height="40" as="geometry" />
        </mxCell>
        <mxCell id="VNmVYb1o_VnMMn-IZns2-9" value="MQTT/TCP" style="edgeStyle=orthogonalEdgeStyle;rounded=0;orthogonalLoop=1;jettySize=auto;html=1;entryX=0;entryY=0.5;entryDx=0;entryDy=0;" edge="1" parent="1" source="VNmVYb1o_VnMMn-IZns2-3" target="VNmVYb1o_VnMMn-IZns2-6">
          <mxGeometry relative="1" as="geometry" />
        </mxCell>
        <mxCell id="VNmVYb1o_VnMMn-IZns2-3" value="RTU 1" style="image;aspect=fixed;perimeter=ellipsePerimeter;html=1;align=center;shadow=0;dashed=0;spacingTop=3;image=img/lib/active_directory/vista_terminal.svg;" vertex="1" parent="1">
          <mxGeometry x="110" y="220" width="30" height="46.15" as="geometry" />
        </mxCell>
        <mxCell id="VNmVYb1o_VnMMn-IZns2-19" style="edgeStyle=elbowEdgeStyle;rounded=0;orthogonalLoop=1;jettySize=auto;elbow=vertical;html=1;" edge="1" parent="1" source="VNmVYb1o_VnMMn-IZns2-5" target="VNmVYb1o_VnMMn-IZns2-13">
          <mxGeometry relative="1" as="geometry" />
        </mxCell>
        <mxCell id="VNmVYb1o_VnMMn-IZns2-23" style="edgeStyle=elbowEdgeStyle;rounded=0;orthogonalLoop=1;jettySize=auto;elbow=vertical;html=1;exitX=0.5;exitY=1;exitDx=0;exitDy=0;exitPerimeter=0;" edge="1" parent="1" source="VNmVYb1o_VnMMn-IZns2-5" target="VNmVYb1o_VnMMn-IZns2-20">
          <mxGeometry relative="1" as="geometry" />
        </mxCell>
        <mxCell id="VNmVYb1o_VnMMn-IZns2-51" style="edgeStyle=elbowEdgeStyle;rounded=0;orthogonalLoop=1;jettySize=auto;elbow=vertical;html=1;" edge="1" parent="1" source="VNmVYb1o_VnMMn-IZns2-5" target="VNmVYb1o_VnMMn-IZns2-47">
          <mxGeometry relative="1" as="geometry" />
        </mxCell>
        <mxCell id="VNmVYb1o_VnMMn-IZns2-5" value="Our Server(CONNECTED)" style="outlineConnect=0;dashed=0;verticalLabelPosition=bottom;verticalAlign=top;align=center;html=1;shape=mxgraph.aws3.internet_gateway;fillColor=#F58534;gradientColor=none;" vertex="1" parent="1">
          <mxGeometry x="832.9599999999999" y="500" width="60" height="66" as="geometry" />
        </mxCell>
        <mxCell id="VNmVYb1o_VnMMn-IZns2-11" value="MQTP(MQTT/TCP)" style="edgeStyle=orthogonalEdgeStyle;rounded=0;orthogonalLoop=1;jettySize=auto;html=1;entryX=0;entryY=0.5;entryDx=0;entryDy=0;" edge="1" parent="1" source="VNmVYb1o_VnMMn-IZns2-6" target="VNmVYb1o_VnMMn-IZns2-10">
          <mxGeometry relative="1" as="geometry" />
        </mxCell>
        <mxCell id="VNmVYb1o_VnMMn-IZns2-6" value="Internet" style="image;aspect=fixed;perimeter=ellipsePerimeter;html=1;align=center;shadow=0;dashed=0;spacingTop=3;image=img/lib/active_directory/internet_globe.svg;" vertex="1" parent="1">
          <mxGeometry x="410" y="365" width="50" height="50" as="geometry" />
        </mxCell>
        <mxCell id="VNmVYb1o_VnMMn-IZns2-21" value="MQTP" style="edgeStyle=elbowEdgeStyle;rounded=0;orthogonalLoop=1;jettySize=auto;elbow=vertical;html=1;" edge="1" parent="1" source="VNmVYb1o_VnMMn-IZns2-10" target="VNmVYb1o_VnMMn-IZns2-20">
          <mxGeometry relative="1" as="geometry" />
        </mxCell>
        <mxCell id="VNmVYb1o_VnMMn-IZns2-10" value="firewall&lt;br&gt;" style="image;html=1;image=img/lib/clip_art/networking/Firewall_02_128x128.png" vertex="1" parent="1">
          <mxGeometry x="570" y="373" width="80" height="80" as="geometry" />
        </mxCell>
        <mxCell id="VNmVYb1o_VnMMn-IZns2-17" value="API Communication" style="edgeStyle=elbowEdgeStyle;rounded=0;orthogonalLoop=1;jettySize=auto;elbow=vertical;html=1;entryX=0.5;entryY=0;entryDx=0;entryDy=0;entryPerimeter=0;" edge="1" parent="1" source="VNmVYb1o_VnMMn-IZns2-13" target="VNmVYb1o_VnMMn-IZns2-5">
          <mxGeometry relative="1" as="geometry" />
        </mxCell>
        <mxCell id="VNmVYb1o_VnMMn-IZns2-24" style="edgeStyle=elbowEdgeStyle;rounded=0;orthogonalLoop=1;jettySize=auto;elbow=vertical;html=1;" edge="1" parent="1" source="VNmVYb1o_VnMMn-IZns2-13" target="VNmVYb1o_VnMMn-IZns2-20">
          <mxGeometry relative="1" as="geometry" />
        </mxCell>
        <mxCell id="VNmVYb1o_VnMMn-IZns2-13" value="IMS" style="sketch=0;outlineConnect=0;fontColor=#232F3E;gradientColor=none;fillColor=#B0084D;strokeColor=none;dashed=0;verticalLabelPosition=top;verticalAlign=bottom;align=center;html=1;fontSize=12;fontStyle=0;aspect=fixed;pointerEvents=1;shape=mxgraph.aws4.endpoint;labelPosition=center;" vertex="1" parent="1">
          <mxGeometry x="1060" y="300" width="45.92" height="45.92" as="geometry" />
        </mxCell>
        <mxCell id="VNmVYb1o_VnMMn-IZns2-22" style="edgeStyle=elbowEdgeStyle;rounded=0;orthogonalLoop=1;jettySize=auto;elbow=vertical;html=1;" edge="1" parent="1" source="VNmVYb1o_VnMMn-IZns2-20" target="VNmVYb1o_VnMMn-IZns2-13">
          <mxGeometry relative="1" as="geometry" />
        </mxCell>
        <mxCell id="VNmVYb1o_VnMMn-IZns2-55" style="edgeStyle=elbowEdgeStyle;rounded=0;orthogonalLoop=1;jettySize=auto;elbow=vertical;html=1;" edge="1" parent="1" source="VNmVYb1o_VnMMn-IZns2-20" target="VNmVYb1o_VnMMn-IZns2-48">
          <mxGeometry relative="1" as="geometry" />
        </mxCell>
        <mxCell id="VNmVYb1o_VnMMn-IZns2-56" style="edgeStyle=elbowEdgeStyle;rounded=0;orthogonalLoop=1;jettySize=auto;elbow=vertical;html=1;entryX=0.5;entryY=0;entryDx=0;entryDy=0;entryPerimeter=0;" edge="1" parent="1" source="VNmVYb1o_VnMMn-IZns2-20" target="VNmVYb1o_VnMMn-IZns2-49">
          <mxGeometry relative="1" as="geometry" />
        </mxCell>
        <mxCell id="VNmVYb1o_VnMMn-IZns2-57" style="edgeStyle=elbowEdgeStyle;rounded=0;orthogonalLoop=1;jettySize=auto;elbow=vertical;html=1;" edge="1" parent="1" source="VNmVYb1o_VnMMn-IZns2-20" target="VNmVYb1o_VnMMn-IZns2-50">
          <mxGeometry relative="1" as="geometry" />
        </mxCell>
        <mxCell id="VNmVYb1o_VnMMn-IZns2-20" value="MQTT Broker" style="sketch=0;outlineConnect=0;fontColor=#232F3E;gradientColor=none;fillColor=#B0084D;strokeColor=none;dashed=0;verticalLabelPosition=middle;verticalAlign=middle;align=right;html=1;fontSize=12;fontStyle=0;aspect=fixed;pointerEvents=1;shape=mxgraph.aws4.mq_broker;labelPosition=left;" vertex="1" parent="1">
          <mxGeometry x="660" y="260" width="78" height="78" as="geometry" />
        </mxCell>
        <mxCell id="VNmVYb1o_VnMMn-IZns2-32" style="edgeStyle=orthogonalEdgeStyle;rounded=0;orthogonalLoop=1;jettySize=auto;html=1;entryX=0;entryY=0.5;entryDx=0;entryDy=0;" edge="1" parent="1" source="VNmVYb1o_VnMMn-IZns2-33" target="VNmVYb1o_VnMMn-IZns2-34">
          <mxGeometry relative="1" as="geometry" />
        </mxCell>
        <mxCell id="VNmVYb1o_VnMMn-IZns2-42" style="edgeStyle=elbowEdgeStyle;rounded=0;orthogonalLoop=1;jettySize=auto;elbow=vertical;html=1;" edge="1" parent="1" source="VNmVYb1o_VnMMn-IZns2-33" target="VNmVYb1o_VnMMn-IZns2-20">
          <mxGeometry relative="1" as="geometry" />
        </mxCell>
        <mxCell id="VNmVYb1o_VnMMn-IZns2-33" value="SENSOR 2" style="image;aspect=fixed;perimeter=ellipsePerimeter;align=center;shadow=0;dashed=0;fontColor=#4277BB;labelBackgroundColor=default;fontSize=12;spacingTop=3;image=img/lib/ibm/users/sensor.svg;whiteSpace=wrap;" vertex="1" parent="1">
          <mxGeometry x="90" y="10" width="40" height="40" as="geometry" />
        </mxCell>
        <mxCell id="VNmVYb1o_VnMMn-IZns2-38" style="edgeStyle=elbowEdgeStyle;rounded=0;orthogonalLoop=1;jettySize=auto;elbow=vertical;html=1;entryX=0.5;entryY=0;entryDx=0;entryDy=0;" edge="1" parent="1" source="VNmVYb1o_VnMMn-IZns2-34" target="VNmVYb1o_VnMMn-IZns2-6">
          <mxGeometry relative="1" as="geometry" />
        </mxCell>
        <mxCell id="VNmVYb1o_VnMMn-IZns2-34" value="RTU 2" style="image;aspect=fixed;perimeter=ellipsePerimeter;html=1;align=center;shadow=0;dashed=0;spacingTop=3;image=img/lib/active_directory/vista_terminal.svg;" vertex="1" parent="1">
          <mxGeometry x="170" y="50" width="30" height="46.15" as="geometry" />
        </mxCell>
        <mxCell id="VNmVYb1o_VnMMn-IZns2-35" style="edgeStyle=orthogonalEdgeStyle;rounded=0;orthogonalLoop=1;jettySize=auto;html=1;entryX=0;entryY=0.5;entryDx=0;entryDy=0;" edge="1" parent="1" source="VNmVYb1o_VnMMn-IZns2-36" target="VNmVYb1o_VnMMn-IZns2-37">
          <mxGeometry relative="1" as="geometry" />
        </mxCell>
        <mxCell id="VNmVYb1o_VnMMn-IZns2-43" style="edgeStyle=elbowEdgeStyle;rounded=0;orthogonalLoop=1;jettySize=auto;elbow=vertical;html=1;" edge="1" parent="1" source="VNmVYb1o_VnMMn-IZns2-36" target="VNmVYb1o_VnMMn-IZns2-20">
          <mxGeometry relative="1" as="geometry" />
        </mxCell>
        <mxCell id="VNmVYb1o_VnMMn-IZns2-36" value="SENSOR 3" style="image;aspect=fixed;perimeter=ellipsePerimeter;align=center;shadow=0;dashed=0;fontColor=#4277BB;labelBackgroundColor=default;fontSize=12;spacingTop=3;image=img/lib/ibm/users/sensor.svg;whiteSpace=wrap;" vertex="1" parent="1">
          <mxGeometry x="1090" y="20" width="40" height="40" as="geometry" />
        </mxCell>
        <mxCell id="VNmVYb1o_VnMMn-IZns2-39" style="edgeStyle=elbowEdgeStyle;rounded=0;orthogonalLoop=1;jettySize=auto;elbow=vertical;html=1;entryX=0.5;entryY=0;entryDx=0;entryDy=0;" edge="1" parent="1" source="VNmVYb1o_VnMMn-IZns2-37" target="VNmVYb1o_VnMMn-IZns2-6">
          <mxGeometry relative="1" as="geometry" />
        </mxCell>
        <mxCell id="VNmVYb1o_VnMMn-IZns2-37" value="RTU 3" style="image;aspect=fixed;perimeter=ellipsePerimeter;html=1;align=center;shadow=0;dashed=0;spacingTop=3;image=img/lib/active_directory/vista_terminal.svg;" vertex="1" parent="1">
          <mxGeometry x="1020" y="-36.15" width="30" height="46.15" as="geometry" />
        </mxCell>
        <mxCell id="VNmVYb1o_VnMMn-IZns2-52" style="edgeStyle=elbowEdgeStyle;rounded=0;orthogonalLoop=1;jettySize=auto;elbow=vertical;html=1;" edge="1" parent="1" source="VNmVYb1o_VnMMn-IZns2-47" target="VNmVYb1o_VnMMn-IZns2-49">
          <mxGeometry relative="1" as="geometry" />
        </mxCell>
        <mxCell id="VNmVYb1o_VnMMn-IZns2-53" style="edgeStyle=elbowEdgeStyle;rounded=0;orthogonalLoop=1;jettySize=auto;elbow=vertical;html=1;" edge="1" parent="1" source="VNmVYb1o_VnMMn-IZns2-47" target="VNmVYb1o_VnMMn-IZns2-48">
          <mxGeometry relative="1" as="geometry" />
        </mxCell>
        <mxCell id="VNmVYb1o_VnMMn-IZns2-54" style="edgeStyle=elbowEdgeStyle;rounded=0;orthogonalLoop=1;jettySize=auto;elbow=vertical;html=1;" edge="1" parent="1" source="VNmVYb1o_VnMMn-IZns2-47" target="VNmVYb1o_VnMMn-IZns2-50">
          <mxGeometry relative="1" as="geometry" />
        </mxCell>
        <mxCell id="VNmVYb1o_VnMMn-IZns2-47" value="Internet" style="image;aspect=fixed;perimeter=ellipsePerimeter;html=1;align=center;shadow=0;dashed=0;spacingTop=3;image=img/lib/active_directory/internet_globe.svg;" vertex="1" parent="1">
          <mxGeometry x="1020" y="580" width="50" height="50" as="geometry" />
        </mxCell>
        <mxCell id="VNmVYb1o_VnMMn-IZns2-48" value="USER 1" style="outlineConnect=0;dashed=0;verticalLabelPosition=bottom;verticalAlign=top;align=center;html=1;shape=mxgraph.aws3.user;fillColor=#D2D3D3;gradientColor=none;" vertex="1" parent="1">
          <mxGeometry x="390" y="590" width="45" height="63" as="geometry" />
        </mxCell>
        <mxCell id="VNmVYb1o_VnMMn-IZns2-49" value="USER 3" style="outlineConnect=0;dashed=0;verticalLabelPosition=bottom;verticalAlign=top;align=center;html=1;shape=mxgraph.aws3.user;fillColor=#D2D3D3;gradientColor=none;" vertex="1" parent="1">
          <mxGeometry x="700" y="693" width="45" height="63" as="geometry" />
        </mxCell>
        <mxCell id="VNmVYb1o_VnMMn-IZns2-50" value="USER 2" style="outlineConnect=0;dashed=0;verticalLabelPosition=bottom;verticalAlign=top;align=center;html=1;shape=mxgraph.aws3.user;fillColor=#D2D3D3;gradientColor=none;" vertex="1" parent="1">
          <mxGeometry x="230" y="730" width="45" height="63" as="geometry" />
        </mxCell>
      </root>
    </mxGraphModel>
  </diagram>
</mxfile>
